<?xml version="1.0" encoding="utf-8"?>
<!-- Generator: Adobe Illustrator 14.0.0, SVG Export Plug-In . SVG Version: 6.00 Build 43363)  -->
<!DOCTYPE svg PUBLIC "-//W3C//DTD SVG 1.1//EN" "http://www.w3.org/Graphics/SVG/1.1/DTD/svg11.dtd">
<svg version="1.1" id="Capa_1" xmlns="http://www.w3.org/2000/svg" xmlns:xlink="http://www.w3.org/1999/xlink" x="0px" y="0px"
	 width="140px" height="140px" viewBox="0 0 140 140" enable-background="new 0 0 140 140" xml:space="preserve">
<circle fill="#089AD7" cx="73.923" cy="55.868" r="19.759"/>
<g>
	<g>
		<g>
			<g>
				<path fill="none" stroke="#363F40" stroke-width="2" stroke-miterlimit="10" d="M35.046,93.313"/>
			</g>
			<g>
				<polygon fill="#363F40" points="37.127,80.831 32.966,80.831 32.966,3.859 116.179,3.859 116.179,72.51 112.019,72.51 
					112.019,8.019 37.127,8.019 				"/>
			</g>
			<g>
				<polygon fill="#363F40" points="136.982,137 3.841,137 3.841,49.626 20.484,49.626 20.484,53.787 8.001,53.787 8.001,132.839 
					132.821,132.839 132.821,53.787 120.34,53.787 120.34,49.626 136.982,49.626 				"/>
			</g>
			<g>
				<polygon fill="#363F40" points="133.629,136.564 70.411,87.623 7.195,136.564 4.648,133.274 70.411,82.361 136.177,133.274 				
					"/>
			</g>
			<g>
				
					<rect x="-2.695" y="70.43" transform="matrix(0.7071 0.7071 -0.7071 0.7071 59.099 2.3402)" fill="#363F40" width="58.84" height="4.16"/>
			</g>
			<g>
				
					<rect x="112.019" y="43.089" transform="matrix(0.7071 0.7071 -0.7071 0.7071 84.6907 -59.4424)" fill="#363F40" width="4.16" height="58.841"/>
			</g>
			<g>
				<rect x="68.332" y="120.357" fill="#363F40" width="4.16" height="4.161"/>
			</g>
			<g>
				<rect x="76.653" y="120.357" fill="#363F40" width="4.161" height="4.161"/>
			</g>
			<g>
				<rect x="60.011" y="120.357" fill="#363F40" width="4.16" height="4.161"/>
			</g>
			<g>
				<polygon fill="#363F40" points="28.805,72.51 24.645,72.51 24.645,12.18 35.046,12.18 35.046,16.341 28.805,16.341 				"/>
			</g>
			<g>
				<path fill="#363F40" d="M74.572,78.75c-12.618,0-22.883-10.265-22.883-22.883s10.265-22.883,22.883-22.883
					s22.883,10.265,22.883,22.883S87.19,78.75,74.572,78.75z M74.572,37.145c-10.324,0-18.723,8.398-18.723,18.722
					c0,10.325,8.399,18.723,18.723,18.723s18.724-8.398,18.724-18.723C93.296,45.542,84.896,37.145,74.572,37.145z"/>
			</g>
			<g>
				<rect x="41.287" y="12.18" fill="#363F40" width="4.161" height="4.161"/>
			</g>
			<g>
				<rect x="49.608" y="12.18" fill="#363F40" width="4.161" height="4.161"/>
			</g>
			<g>
				<rect x="57.93" y="12.18" fill="#363F40" width="4.16" height="4.161"/>
			</g>
			<g>
				<rect x="41.287" y="20.501" fill="#363F40" width="66.571" height="4.161"/>
			</g>
		</g>
	</g>
	
		<rect x="72.107" y="44.167" transform="matrix(0.7069 0.7073 -0.7073 0.7069 61.1821 -35.9121)" fill="#FFFFFF" width="3.632" height="23.401"/>
	
		<rect x="73.406" y="44.169" transform="matrix(0.7074 -0.7068 0.7068 0.7074 -17.4782 69.518)" fill="#FFFFFF" width="3.632" height="23.4"/>
</g>
</svg>
