<?xml version="1.0" encoding="utf-8"?>
<!-- Generator: Adobe Illustrator 14.0.0, SVG Export Plug-In . SVG Version: 6.00 Build 43363)  -->
<!DOCTYPE svg PUBLIC "-//W3C//DTD SVG 1.1//EN" "http://www.w3.org/Graphics/SVG/1.1/DTD/svg11.dtd">
<svg version="1.1" id="Capa_1" xmlns="http://www.w3.org/2000/svg" xmlns:xlink="http://www.w3.org/1999/xlink" x="0px" y="0px"
	 width="140px" height="140px" viewBox="0 0 140 140" enable-background="new 0 0 140 140" xml:space="preserve">
<path fill="#089AD7" d="M41.5,7.25v5l3.314,5.25l0.936,5.25l1.224,3.902v4.317c0,0,4.232,12.781,23.026,12.781
	s24.75-12.781,24.75-12.781l6.187-23.719L95.5,8.75l-11.832-1.5L81.509,3.5L76.25,7.75l-7.691,1.5L63.5,7.5l-2.944-4l-2.79,3.25
	L54.25,9l-9.436,0.25L41.5,7.25z"/>
<g>
	<g>
		<g>
			<path fill="#363F40" d="M133.314,138.896h-4.316v-21.586c0-11.309-13.441-17.312-26.585-21.695
				c-0.098-0.032-0.191-0.071-0.284-0.116l-12.951-6.476l1.932-3.863l12.814,6.408c14.56,4.866,29.391,11.737,29.391,25.742V138.896
				z"/>
		</g>
		<g>
			<path fill="#363F40" d="M12.436,138.896H8.119v-21.586c0-14.005,14.833-20.876,29.391-25.742l12.814-6.408l1.932,3.863
				l-12.951,6.476c-0.093,0.045-0.187,0.084-0.284,0.116c-13.146,4.383-26.585,10.387-26.585,21.695V138.896z"/>
		</g>
		<g>
			<rect x="29.705" y="125.945" fill="#363F40" width="4.317" height="12.951"/>
		</g>
		<g>
			<rect x="107.412" y="125.945" fill="#363F40" width="4.316" height="12.951"/>
		</g>
		<g>
			<rect x="55.606" y="69.823" fill="#363F40" width="4.318" height="10.792"/>
		</g>
		<g>
			<rect x="81.509" y="69.823" fill="#363F40" width="4.318" height="10.792"/>
		</g>
		<g>
			<path fill="#363F40" d="M70.717,76.299c-16.822,0-23.381-16.277-23.729-27.153l-2.174-2.173v-5.211h4.317v3.423l2.159,2.158
				v0.894c0,9.18,5.275,23.745,19.427,23.745c14.152,0,19.427-14.564,19.427-23.745v-0.894l2.159-2.158v-3.423h4.316v5.211
				l-2.174,2.173C94.099,60.021,87.538,76.299,70.717,76.299z"/>
		</g>
		<g>
			<path fill="#363F40" d="M81.509,102.201c-0.184,0-0.37-0.023-0.554-0.073c-0.946-0.251-1.604-1.106-1.604-2.085
				c0-4.759-3.875-8.634-8.635-8.634s-8.635,3.875-8.635,8.634c0,0.979-0.657,1.834-1.603,2.085
				c-0.956,0.25-1.944-0.164-2.429-1.015l-8.634-15.109c-0.406-0.708-0.375-1.59,0.078-2.269l4.317-6.476
				c0.578-0.865,1.688-1.199,2.648-0.786l14.258,6.111l14.258-6.111c0.963-0.413,2.07-0.079,2.647,0.786l4.317,6.476
				c0.452,0.679,0.484,1.561,0.079,2.269l-8.635,15.109C82.993,101.799,82.271,102.201,81.509,102.201z M70.717,87.092
				c5.072,0,9.474,2.933,11.598,7.192l5.294-9.263l-2.582-3.874l-13.457,5.77c-0.545,0.233-1.16,0.233-1.705,0l-13.458-5.77
				l-2.581,3.874l5.293,9.263C61.243,90.024,65.645,87.092,70.717,87.092z"/>
		</g>
		<g>
			<path fill="#363F40" d="M66.4,138.896h-4.318v-30.22c0-0.57,0.228-1.121,0.633-1.526l4.949-4.949l-7.108-7.107l3.053-3.053
				l8.634,8.634c0.843,0.845,0.843,2.209,0,3.053l-5.843,5.844V138.896z"/>
		</g>
		<g>
			<path fill="#363F40" d="M79.352,138.896h-4.318v-29.325l-5.843-5.844c-0.843-0.844-0.843-2.208,0-3.053l8.635-8.634l3.053,3.053
				l-7.108,7.107l4.949,4.949c0.404,0.405,0.633,0.956,0.633,1.526V138.896z"/>
		</g>
		<g>
			<rect x="83.668" y="112.994" fill="#363F40" width="17.269" height="4.316"/>
		</g>
		<g>
			<rect x="83.668" y="121.629" fill="#363F40" width="17.269" height="4.316"/>
		</g>
		<g>
			<path fill="#363F40" d="M81.509,61.189h-4.316c-2.576,0-4.894-1.134-6.476-2.93c-1.583,1.796-3.899,2.93-6.476,2.93h-4.317
				v-4.317h4.317c2.382,0,4.317-1.935,4.317-4.317h4.318c0,2.382,1.935,4.317,4.316,4.317h4.316V61.189z"/>
		</g>
		<g>
			<g>
				<path fill="#363F40" d="M94.461,33.128H46.973c-1.191,0-2.159-0.967-2.159-2.159v-8.634c0-1.192,0.967-2.159,2.159-2.159h47.488
					c1.192,0,2.158,0.966,2.158,2.159v8.634C96.619,32.162,95.653,33.128,94.461,33.128z M49.131,28.811h43.171v-4.317H49.131
					V28.811z"/>
			</g>
			<g>
				<path fill="#363F40" d="M70.717,46.08c-14.525,0-25.903-6.637-25.903-15.11h4.317c0,5.851,9.887,10.793,21.585,10.793
					c11.699,0,21.586-4.942,21.586-10.793h4.316C96.619,39.442,85.239,46.08,70.717,46.08z"/>
			</g>
			<g>
				<path fill="#363F40" d="M96.361,27.675l-3.802-2.043c0.051-0.092,3.959-7.441,5.553-14.91c-2.762,0.821-6.021,0.821-7.969,0.821
					c-4.375,0-7.336-2.18-9.032-4.887c-2.393,2.754-6.212,4.887-10.395,4.887c-4.182,0-8.002-2.133-10.395-4.887
					c-1.696,2.707-4.657,4.887-9.032,4.887c-1.947,0-5.206,0-7.968-0.821c1.594,7.469,5.503,14.817,5.552,14.91l-3.802,2.043
					c-0.275-0.512-6.733-12.641-6.733-22.607h4.317c0,1.392,3.066,2.158,8.634,2.158c4.893,0,6.476-4.362,6.476-6.476h4.316
					c0,2.216,3.647,6.476,8.635,6.476c4.987,0,8.635-4.259,8.635-6.476h4.316c0,2.114,1.582,6.476,6.476,6.476
					c5.569,0,8.635-0.766,8.635-2.158h4.316C103.095,15.034,96.636,27.163,96.361,27.675z"/>
			</g>
		</g>
	</g>
</g>
</svg>
