<?xml version="1.0" encoding="utf-8"?>
<!-- Generator: Adobe Illustrator 14.0.0, SVG Export Plug-In . SVG Version: 6.00 Build 43363)  -->
<!DOCTYPE svg PUBLIC "-//W3C//DTD SVG 1.1//EN" "http://www.w3.org/Graphics/SVG/1.1/DTD/svg11.dtd">
<svg version="1.1" id="Capa_1" xmlns="http://www.w3.org/2000/svg" xmlns:xlink="http://www.w3.org/1999/xlink" x="0px" y="0px"
	 width="140px" height="140px" viewBox="0 0 140 140" enable-background="new 0 0 140 140" xml:space="preserve">
<path fill="#089AD7" d="M81.951,75.07c-6.012-2.708-17.582-4.203-24.248-0.325c-0.009,0-0.017-0.002-0.026-0.002
	c-6.189,0.154-7.618,5.392-7.208,10.601c0.591,7.511,1.645,14.545,1.031,22.156c-0.174,2.157,1.649,4.312,3.671,4.821
	c9.129,2.302,18.342,0.32,27.579,0.179c2.451-0.037,5.362-2.263,5-5c-0.539-4.082-1.152-8.127-1.25-12.25
	c-0.068-2.89,1.357-5.83,1.583-8.732C88.473,81.492,86.657,77.19,81.951,75.07z"/>
<rect x="59.75" y="104.5" fill="#089AD7" width="21.25" height="30.455"/>
<g>
	<rect x="25.613" y="94.044" fill="#363F40" width="4.599" height="39.09"/>
</g>
<g>
	<path fill="#363F40" d="M27.913,29.659c-6.337,0-11.497-5.159-11.497-11.498c0-6.339,5.16-11.497,11.497-11.497
		c6.342,0,11.497,5.158,11.497,11.497C39.41,24.5,34.255,29.659,27.913,29.659z M27.913,11.263c-3.804,0-6.899,3.094-6.899,6.898
		c0,3.804,3.095,6.899,6.899,6.899c3.804,0,6.898-3.095,6.898-6.899C34.812,14.357,31.717,11.263,27.913,11.263z"/>
</g>
<g>
	<path fill="#363F40" d="M44.009,133.134H39.41V84.846h9.198V48.054c0-5.073-4.128-9.198-9.198-9.198H16.416
		c-5.071,0-9.198,4.125-9.198,9.198v36.792h9.198v48.288h-4.599V89.444H2.619V48.054c0-7.607,6.188-13.796,13.797-13.796H39.41
		c7.608,0,13.797,6.189,13.797,13.796v41.391h-9.198V133.134z"/>
</g>
<g>
	<rect x="25.613" y="43.455" fill="#363F40" width="4.599" height="4.599"/>
</g>
<g>
	<path fill="#363F40" d="M111.749,29.659c-6.339,0-11.497-5.159-11.497-11.498c0-6.339,5.158-11.497,11.497-11.497
		c6.34,0,11.497,5.158,11.497,11.497C123.246,24.5,118.089,29.659,111.749,29.659z M111.749,11.263
		c-3.804,0-6.898,3.094-6.898,6.898c0,3.804,3.095,6.899,6.898,6.899s6.898-3.095,6.898-6.899
		C118.647,14.357,115.553,11.263,111.749,11.263z"/>
</g>
<g>
	<path fill="#363F40" d="M127.846,133.134h-4.6V84.846h9.198V48.054c0-5.073-4.127-9.198-9.198-9.198h-22.994
		c-5.07,0-9.198,4.125-9.198,9.198v36.792h9.198v48.288h-4.6V89.444h-9.196V48.054c0-7.607,6.188-13.796,13.796-13.796h22.994
		c7.609,0,13.798,6.189,13.798,13.796v41.391h-9.198V133.134z"/>
</g>
<g>
	<rect x="109.45" y="43.455" fill="#363F40" width="4.599" height="4.599"/>
</g>
<g>
	<path fill="#363F40" d="M70.381,67.972c-4.841,0-8.78-3.938-8.78-8.78c0-4.841,3.939-8.782,8.78-8.782s8.783,3.941,8.783,8.782
		C79.164,64.034,75.223,67.972,70.381,67.972z M70.381,53.922c-2.906,0-5.268,2.364-5.268,5.27s2.362,5.269,5.268,5.269
		s5.271-2.363,5.271-5.269S73.287,53.922,70.381,53.922z"/>
</g>
<g>
	<path fill="#363F40" d="M82.676,134.955h-3.512v-24.833h7.026V82.021c0-3.871-3.153-7.023-7.026-7.023H61.601
		c-3.871,0-7.024,3.152-7.024,7.023v28.102h7.024v24.833h-3.512v-21.321h-7.024V82.021c0-5.81,4.725-10.536,10.536-10.536h17.563
		c5.81,0,10.538,4.727,10.538,10.536v31.613h-7.026V134.955z"/>
</g>
<g>
	<rect x="68.625" y="78.509" fill="#FFFFFF" width="3.513" height="3.512"/>
</g>
</svg>
