<?xml version="1.0" encoding="utf-8"?>
<!-- Generator: Adobe Illustrator 14.0.0, SVG Export Plug-In . SVG Version: 6.00 Build 43363)  -->
<!DOCTYPE svg PUBLIC "-//W3C//DTD SVG 1.1//EN" "http://www.w3.org/Graphics/SVG/1.1/DTD/svg11.dtd">
<svg version="1.1" id="Capa_1" xmlns="http://www.w3.org/2000/svg" xmlns:xlink="http://www.w3.org/1999/xlink" x="0px" y="0px"
	 width="140px" height="140px" viewBox="0 0 140 140" enable-background="new 0 0 140 140" xml:space="preserve">
<path fill="#089AD7" d="M19.306,112.126c0,0-18.477-20.431-16.806-42.126c1.671-21.695,11.25-51.75,47-65.5
	s72.25,13.667,82.5,37.958s4.5,31.292,4.5,31.292l-5.25,21.125l-9.729,15.375l-2.271,1.876L103.75,106l-6.402-2.39L87.5,94.875
	h-4.562V81.938L88.5,74.25l3.75-14.5l1.469-8v-25l-2.969-3.5L72.156,22l-12.938,1l-4.214,2.5V28l-6.567,1.25l-1.078,3l-1.078,24.221
	l2.156,3.279L50.5,69c0,0,4.406,10.062,6.562,11.5s0,5,0,5v9.375H51.25l-9.245,8.735l-20.176,8.516H19.306z"/>
<g>
	<g>
		<g>
			<g>
				<g>
					<path fill="#363F40" d="M70,138c-38.046,0-69-30.955-69-69C1,30.954,31.954,0,70,0c38.045,0,69,30.954,69,69
						C139,107.045,108.045,138,70,138z M70,4.312C34.332,4.312,5.312,33.332,5.312,69c0,35.669,29.019,64.688,64.688,64.688
						c35.669,0,64.688-29.019,64.688-64.688C134.688,33.332,105.669,4.312,70,4.312z"/>
				</g>
			</g>
		</g>
		<g>
			<g>
				<g>
					<g>
						<rect x="54.906" y="81.938" fill="#363F40" width="4.312" height="12.938"/>
					</g>
					<g>
						<rect x="80.781" y="81.938" fill="#363F40" width="4.312" height="12.938"/>
					</g>
					<g>
						<path fill="#363F40" d="M93.719,53.906h-2.156c-3.566,0-6.469-2.901-6.469-6.469v-4.312c0-1.19-0.967-2.156-2.156-2.156
							h-2.156v-2.979l-5.959,2.979h-17.76c-1.19,0-2.156,0.966-2.156,2.156v4.312c0,3.567-2.901,6.469-6.469,6.469v-4.312
							c1.19,0,2.156-0.966,2.156-2.156v-4.312c0-3.567,2.902-6.469,6.469-6.469h16.74l11.291-5.646v6.014
							c2.511,0.891,4.312,3.289,4.312,6.1v4.312c0,1.19,0.967,2.156,2.156,2.156h2.156V53.906z"/>
					</g>
					<g>
						<rect x="46.281" y="49.594" fill="#363F40" width="2.156" height="4.312"/>
					</g>
					<g>
						<path fill="#363F40" d="M70,88.406c-16.805,0-23.356-16.26-23.705-27.124l-2.17-2.17V34.5c0-4.757,3.868-8.625,8.625-8.625
							h0.274c0.958-3.717,4.339-6.469,8.351-6.469h23.719c5.945,0,10.781,4.837,10.781,10.781v28.925l-2.172,2.17
							C93.355,72.146,86.806,88.406,70,88.406z M48.438,57.325l2.156,2.156v0.894c0,9.17,5.27,23.719,19.406,23.719
							c14.138,0,19.406-14.549,19.406-23.719v-0.894l2.156-2.156V30.188c0-3.567-2.902-6.469-6.469-6.469H61.375
							c-2.377,0-4.312,1.936-4.312,4.312v2.156H52.75c-2.377,0-4.312,1.936-4.312,4.312V57.325z"/>
					</g>
					<g>
						<path fill="#363F40" d="M61.852,114.695L37.854,104.03l14.383-11.505l19.919,4.978v6.891L61.852,114.695z M46.084,102.97
							l14.814,6.585l6.946-6.948v-1.734l-14.581-3.647L46.084,102.97z"/>
					</g>
					<g>
						<path fill="#363F40" d="M78.147,114.695l-10.304-10.302v-6.891l19.919-4.978l14.383,11.505L78.147,114.695z M72.156,102.606
							l6.946,6.948l14.814-6.585l-7.18-5.745l-14.581,3.647V102.606z"/>
					</g>
					<g>
						<rect x="67.844" y="122.906" fill="#363F40" width="4.312" height="4.312"/>
					</g>
					<g>
						<rect x="67.844" y="114.281" fill="#363F40" width="4.312" height="4.312"/>
					</g>
					<g>
						<path fill="#363F40" d="M22.297,115.314l-3.82-1.999c0.427-0.853,3.22-5.332,16.34-9.704l6.469-2.156l1.364,4.09l-6.469,2.156
							C24.651,111.546,22.32,115.279,22.297,115.314z"/>
					</g>
					<g>
						<path fill="#363F40" d="M117.666,115.247c-0.005,0-2.367-3.718-13.85-7.546l-6.469-2.156l1.367-4.09l6.469,2.156
							c13.12,4.372,15.91,8.852,16.338,9.704L117.666,115.247L117.666,115.247z"/>
					</g>
				</g>
			</g>
		</g>
	</g>
</g>
</svg>
