<?xml version="1.0" encoding="utf-8"?>
<!-- Generator: Adobe Illustrator 14.0.0, SVG Export Plug-In . SVG Version: 6.00 Build 43363)  -->
<!DOCTYPE svg PUBLIC "-//W3C//DTD SVG 1.1//EN" "http://www.w3.org/Graphics/SVG/1.1/DTD/svg11.dtd">
<svg version="1.1" id="Capa_1" xmlns="http://www.w3.org/2000/svg" xmlns:xlink="http://www.w3.org/1999/xlink" x="0px" y="0px"
	 width="140px" height="140px" viewBox="0 0 140 140" enable-background="new 0 0 140 140" xml:space="preserve">
<path fill="#089AD7" d="M63.067,70.727c-0.996-1.788-2.136-3.468-3.36-5.083c-3.434-5.164-7.137-10.516-11.272-15.201
	c0.548-1.392,0.543-2.99-0.367-4.216c-3.475-4.682-8.184-7.616-14.125-7.25c-5.824-2.638-12.4-3.337-19.967-0.881
	c-3.128,0.649-5.847,2.193-7.857,5.359C2.346,49.394,2.713,58.664,2.624,65.38c-0.086,6.453-0.657,14.815,6.797,17.348
	c1.003,0.341,2.035,0.587,3.077,0.798c0.123,2.799-0.075,5.653-0.565,8.747c-1.423,8.982-3.158,21.316,2.5,29.251
	c3.709,5.202,12.388,0.216,8.635-5.047c-3.969-5.565-2.822-14.278-1.585-21.681c0.01,0.05,0.02,0.1,0.03,0.149
	c1.416,6.873,0.564,14.446,3.671,20.828c1.996,4.101,7.942,2.652,9.139-1.194c2.609-8.389,3.432-16.688,2.613-25.227
	c0.363-0.47,0.667-0.985,0.887-1.523c2.502-6.112,1.862-12.967,1.498-19.407c-0.191-3.388-0.458-6.771-0.752-10.152
	c0.294,0.234,0.537,0.424,0.648,0.516c1.998,1.655,3.831,3.594,5.704,5.389c2.568,2.461,5.003,5.014,7.086,7.852
	c0.805,1.26,1.611,2.514,2.428,3.747C57.972,81.115,66.23,76.404,63.067,70.727z"/>
<rect x="10.75" y="80.151" fill="#089AD7" width="26.75" height="51.692"/>
<g>
	<rect x="113.763" y="42.943" fill="#363F40" width="3.864" height="3.865"/>
</g>
<g>
	<rect x="113.763" y="50.674" fill="#363F40" width="3.864" height="3.865"/>
</g>
<g>
	<rect x="23.009" y="87.394" fill="#363F40" width="3.865" height="44.45"/>
</g>
<g>
	<path fill="#363F40" d="M24.738,31.348c-6.395,0-11.596-5.201-11.596-11.596S18.344,8.156,24.738,8.156
		c6.393,0,11.595,5.201,11.595,11.596S31.131,31.348,24.738,31.348z M24.738,12.021c-4.262,0-7.73,3.468-7.73,7.73
		s3.469,7.73,7.73,7.73c4.261,0,7.73-3.468,7.73-7.73S28.999,12.021,24.738,12.021z"/>
</g>
<path fill="#363F40" d="M65.813,70.845l-0.012,0.013L45.876,41.871c-0.181-0.271-4.542-6.658-13.408-6.658h-15.46
	c-8.415,0-15.258,6.936-15.258,15.461v32.854h7.73v48.315h3.865V79.663h-7.73V50.674c0-6.502,5.005-11.596,11.393-11.596h15.46
	c6.743,0,10.06,4.744,10.207,4.96l20.349,29.598l-3.295,3.295L39.836,57.037c-0.553-0.554-1.383-0.718-2.106-0.418
	c-0.722,0.298-1.193,1.005-1.193,1.786v73.439h3.865V63.069l17.959,17.96c0.755,0.756,1.978,0.756,2.733,0l6.975-6.975
	L65.813,70.845z"/>
<g>
	<rect x="113.88" y="87.394" fill="#363F40" width="3.865" height="44.45"/>
</g>
<g>
	<path fill="#363F40" d="M104.421,19.752c0-6.395,5.201-11.596,11.595-11.596c6.396,0,11.597,5.201,11.597,11.596
		s-5.201,11.596-11.597,11.596C109.622,31.348,104.421,26.146,104.421,19.752z M108.285,19.752c0,4.263,3.47,7.73,7.73,7.73
		c4.264,0,7.73-3.468,7.73-7.73s-3.467-7.73-7.73-7.73C111.755,12.021,108.285,15.489,108.285,19.752z"/>
</g>
<path fill="#363F40" d="M74.942,70.845l0.01,0.013l19.926-28.986c0.182-0.271,4.541-6.658,13.407-6.658h15.461
	c8.414,0,15.258,6.936,15.258,15.461v32.854h-7.73v48.315h-3.865V79.663h7.73V50.674c0-6.502-5.003-11.596-11.393-11.596h-15.461
	c-6.741,0-10.06,4.744-10.207,4.96L77.731,73.636l3.294,3.295l19.892-19.894c0.556-0.554,1.385-0.718,2.107-0.418
	c0.722,0.298,1.192,1.005,1.192,1.786v73.439h-3.865V63.069l-17.961,17.96c-0.754,0.756-1.978,0.756-2.731,0l-6.975-6.975
	L74.942,70.845z"/>
</svg>
