<?xml version="1.0" encoding="utf-8"?>
<!-- Generator: Adobe Illustrator 14.0.0, SVG Export Plug-In . SVG Version: 6.00 Build 43363)  -->
<!DOCTYPE svg PUBLIC "-//W3C//DTD SVG 1.1//EN" "http://www.w3.org/Graphics/SVG/1.1/DTD/svg11.dtd">
<svg version="1.1" id="Capa_1" xmlns="http://www.w3.org/2000/svg" xmlns:xlink="http://www.w3.org/1999/xlink" x="0px" y="0px"
	 width="140px" height="140px" viewBox="0 0 140 140" enable-background="new 0 0 140 140" xml:space="preserve">
<rect x="1.825" y="18.869" fill="#089AD7" width="83.412" height="118.605"/>
<ellipse fill="#FFFFFF" cx="43.869" cy="65.646" rx="28.771" ry="28.296"/>
<g>
	<g>
		<path fill="#363F40" d="M83.06,139.65H4.703c-2.401,0-4.353-1.953-4.353-4.354V22.115c0-2.4,1.952-4.353,4.353-4.353H83.06
			c2.401,0,4.353,1.953,4.353,4.353v113.182C87.412,137.697,85.461,139.65,83.06,139.65z M4.703,22.115v113.182h78.361L83.06,22.115
			H4.703z"/>
	</g>
	<g>
		<path fill="#363F40" d="M43.881,96.119c-16.802,0-30.472-13.67-30.472-30.472c0-16.803,13.669-30.472,30.472-30.472
			c16.803,0,30.473,13.669,30.473,30.472C74.354,82.449,60.684,96.119,43.881,96.119z M43.881,39.528
			c-14.401,0-26.119,11.716-26.119,26.119s11.717,26.119,26.119,26.119C58.283,91.766,70,80.05,70,65.647
			S58.283,39.528,43.881,39.528z"/>
	</g>
	<g>
		<rect x="17.762" y="56.94" fill="#363F40" width="52.238" height="4.354"/>
	</g>
	<g>
		<rect x="17.762" y="72.177" fill="#363F40" width="52.238" height="4.353"/>
	</g>
	<g>
		<rect x="41.705" y="37.352" fill="#363F40" width="4.353" height="56.591"/>
	</g>
	<g>
		<path fill="#363F40" d="M43.881,96.119c-9.764,0-17.412-13.386-17.412-30.472c0-17.087,7.648-30.472,17.412-30.472
			c9.764,0,17.413,13.385,17.413,30.472C61.294,82.733,53.645,96.119,43.881,96.119z M43.881,39.528
			c-7.079,0-13.059,11.96-13.059,26.119s5.98,26.119,13.059,26.119c7.08,0,13.06-11.96,13.06-26.119S50.96,39.528,43.881,39.528z"/>
	</g>
	<g>
		<rect x="13.409" y="104.825" fill="#363F40" width="60.944" height="4.354"/>
	</g>
	<g>
		<rect x="13.409" y="113.531" fill="#363F40" width="60.944" height="4.354"/>
	</g>
	<g>
		<rect x="113.531" y="87.412" fill="#363F40" width="4.354" height="4.354"/>
	</g>
	<g>
		<rect x="122.238" y="87.412" fill="#363F40" width="4.353" height="4.354"/>
	</g>
	<g>
		<rect x="104.825" y="87.412" fill="#363F40" width="4.354" height="4.354"/>
	</g>
	<g>
		<rect x="96.119" y="87.412" fill="#363F40" width="4.353" height="4.354"/>
	</g>
	<g>
		<rect x="109.179" y="100.472" fill="#363F40" width="4.353" height="26.119"/>
	</g>
	<g>
		<rect x="100.472" y="100.472" fill="#363F40" width="4.354" height="26.119"/>
	</g>
	<g>
		<rect x="109.179" y="43.881" fill="#363F40" width="4.353" height="34.825"/>
	</g>
	<g>
		<rect x="100.472" y="43.881" fill="#363F40" width="4.354" height="34.825"/>
	</g>
	<g>
		<g>
			<rect x="104.825" y="13.409" fill="#363F40" width="4.354" height="21.766"/>
		</g>
		<g>
			<path fill="#363F40" d="M109.816,38.89l-2.814-2.814l-2.814,2.814l-3.078-3.078l4.354-4.353c0.851-0.851,2.228-0.851,3.078,0
				l4.353,4.353L109.816,38.89z"/>
		</g>
		<g>
			<path fill="#363F40" d="M114.169,30.184l-7.167-7.167l-7.168,7.167l-3.077-3.078l8.706-8.707c0.851-0.85,2.228-0.85,3.078,0
				l8.706,8.707L114.169,30.184z"/>
		</g>
	</g>
	<g>
		<rect x="122.238" y="96.119" fill="#363F40" width="4.353" height="41.354"/>
	</g>
	<g>
		<rect x="122.238" y="2.526" fill="#363F40" width="4.353" height="80.533"/>
	</g>
	<g>
		<rect x="83.06" y="2.526" fill="#363F40" width="4.353" height="10.883"/>
	</g>
	<g>
		<path fill="#363F40" d="M130.944,139.65H91.766v-4.354h39.179c2.401,0,4.353-1.953,4.353-4.353V96.119
			c0-2.4-1.951-4.354-4.353-4.354v-4.354c2.401,0,4.353-1.953,4.353-4.353V9.056c0-2.399-1.951-4.353-4.353-4.353H70
			c-2.401,0-4.353,1.954-4.353,4.353v4.354h-4.353V9.056c0-4.801,3.905-8.706,8.706-8.706h60.944c4.8,0,8.706,3.905,8.706,8.706
			V83.06c0,2.598-1.144,4.934-2.955,6.529c1.812,1.597,2.955,3.933,2.955,6.53v34.825C139.65,135.746,135.744,139.65,130.944,139.65
			z"/>
	</g>
</g>
</svg>
