<?xml version="1.0" encoding="utf-8"?>
<!-- Generator: Adobe Illustrator 14.0.0, SVG Export Plug-In . SVG Version: 6.00 Build 43363)  -->
<!DOCTYPE svg PUBLIC "-//W3C//DTD SVG 1.1//EN" "http://www.w3.org/Graphics/SVG/1.1/DTD/svg11.dtd">
<svg version="1.1" id="Capa_1" xmlns="http://www.w3.org/2000/svg" xmlns:xlink="http://www.w3.org/1999/xlink" x="0px" y="0px"
	 width="140px" height="140px" viewBox="0 0 140 140" enable-background="new 0 0 140 140" xml:space="preserve">
<path fill="#089AD7" d="M131.5,70c-7.56-0.592-15.066,0.196-22.586,0.857c-0.669-1.612-2.138-2.858-4.414-2.857
	c-6.005,0.003-11.953-0.062-17.88-0.236c-7.871,1.818-15.998,1.948-24.143,0.875c-3.343-0.44-4.934-3.468-4.737-6.085
	c-0.836-1.12-1.691-2.074-2.637-2.833c0.742-0.92,1.401-1.894,1.679-3.105c0.841-3.67-0.183-6.823-2.131-9.964
	c-3.874-6.246-10.671-7.158-17.4-6.901c-1.675,0.064-2.911,0.793-3.715,1.829c-0.348,0.079-0.702,0.195-1.058,0.354
	c-0.655,0.292-1.247,0.607-1.79,0.938c-0.358,3.265-2.214,5.752-4.636,7.897c0.039,3.068,1.404,6.41,3.283,9.575
	c-0.167-0.05-0.333-0.104-0.5-0.152c-5.232-1.484-11.095-0.796-16.008,1.516c-2.986,3.255-6.22,7.453-5.993,11.397
	c0.313,5.454,3.964,11.07,6.853,15.555c0.313,0.486,0.526,0.969,0.657,1.441c0.352,0.17,0.709,0.328,1.075,0.469
	c3.286,1.262,6.959,0.896,9.96-0.752c0.436,5.368,1.846,11.113,4.503,15.326c4.153,6.583,12.337,8.083,19.023,4.785
	c8.542-4.213,9.704-14.985,5.895-22.848c2.752-1.191,5.37-3.129,7.906-4.639c0.735,0.505,1.662,0.816,2.796,0.809
	c11.275-0.071,22.495-1.208,33.75-1.75c5.38-0.26,10.763-0.847,16.149-1.262c0.111,0.829,0.425,1.615,0.945,2.271
	c-1.261,3.29-2.217,6.603-2.345,10.241c-0.171,4.851,6.065,6.443,8.871,3.124c0.236,0.353,0.526,0.638,0.842,0.883
	c0.002,0,0.005,0,0.008,0c1.201,0,2.178,0.348,2.932,0.912c2.572-0.059,5.288-1.893,5.348-4.919c0.048-2.412-0.264-4.783-0.4-7.187
	c-0.062-1.088,0.036-1.505,0.203-2.059c-0.118,0.393,0.959-0.764,1.221-0.938c1.589-1.06,2.256-2.571,2.275-4.078
	C137.438,75.778,136.156,70.364,131.5,70z M21.337,81.538c-0.497,0-0.951-0.065-1.371-0.175c-2.416,0.632-4.854-4.534-5.357-6.28
	c-1-3.47,2.985-4.758,5.566-5.393c0.75-0.184,1.499-0.268,2.246-0.287c-0.08,0.524-0.083,1.084,0.007,1.676
	c0.028,0.183,0.052,0.386,0.078,0.581C27.758,72.791,27.369,81.538,21.337,81.538z M43.855,101.293
	c-4.982,3.053-7.235-4.124-8.12-10.123c2.552-0.949,4.81-1.76,7.577-1.732c0.433,0.004,0.877-0.008,1.324-0.036
	C48.044,92.28,47.646,98.97,43.855,101.293z M46.267,54.974c0.109,2.128-0.949,4.328-3.184,5.051
	c-0.135,0.296-0.274,0.585-0.404,0.896c-0.082,0.194-0.146,0.389-0.193,0.583c-0.367-0.408-0.729-0.819-1.087-1.234
	c-3.865-0.028-5.389-3.662-4.577-6.541c-0.266-0.564-0.503-1.143-0.684-1.751c-0.366-1.235,0.07-0.823,1.386-1.41
	c0.553-0.247,1.009-0.546,1.376-0.885c3.143-0.114,5.884,0.029,7.783,3.091c0.142,0.728,0.27,1.119,0.385,1.196
	C46.833,54.326,46.541,54.657,46.267,54.974z"/>
<g>
	<g>
		<g>
			<g>
				<rect x="68.893" y="88.494" fill="#363F40" width="4.188" height="48.156"/>
			</g>
			<g>
				<path fill="#363F40" d="M70.986,27.775c-6.927,0-12.562-5.635-12.562-12.562S64.059,2.65,70.986,2.65
					c6.928,0,12.562,5.635,12.562,12.562S77.914,27.775,70.986,27.775z M70.986,6.838c-4.619,0-8.375,3.756-8.375,8.375
					s3.756,8.375,8.375,8.375c4.616,0,8.375-3.756,8.375-8.375S75.603,6.838,70.986,6.838z"/>
			</g>
			<g>
				<rect x="83.549" y="82.213" fill="#363F40" width="4.188" height="54.438"/>
			</g>
			<g>
				<path fill="#363F40" d="M94.018,71.744c-1.157,0-2.094-0.937-2.094-2.094V48.713c0-6.927-5.635-12.562-12.562-12.562h-16.75
					c-4.105,0-7.958,2.014-10.313,5.386c-0.661,0.946-1.963,1.181-2.916,0.519c-0.949-0.663-1.18-1.966-0.517-2.916
					c3.134-4.494,8.274-7.176,13.746-7.176h16.75c9.233,0,16.75,7.515,16.75,16.75V69.65C96.111,70.807,95.172,71.744,94.018,71.744
					z"/>
			</g>
			<g>
				<rect x="54.236" y="96.869" fill="#363F40" width="4.188" height="39.781"/>
			</g>
		</g>
		<g>
			<g>
				<path fill="#363F40" d="M41.674,113.619c-9.238,0-16.75-7.514-16.75-16.75c0-1.651,0.237-3.286,0.687-4.846
					c-1.543,0.434-3.181,0.658-4.874,0.658c-9.238,0-16.75-7.514-16.75-16.75c0-9.235,7.512-16.75,16.75-16.75
					c1.693,0,3.331,0.225,4.874,0.659c-0.449-1.561-0.687-3.194-0.687-4.846c0-9.235,7.512-16.75,16.75-16.75
					c9.234,0,16.75,7.515,16.75,16.75v6.281c0,3.464,2.817,6.281,6.281,6.281h73.281v16.75H64.705c-3.464,0-6.281,2.817-6.281,6.281
					v6.281C58.424,106.105,50.908,113.619,41.674,113.619z M32.698,87.868c-2.247,2.294-3.586,5.658-3.586,9.001
					c0,6.928,5.635,12.562,12.562,12.562s12.562-5.635,12.562-12.562v-6.281c0-5.772,4.694-10.469,10.469-10.469h69.094v-8.375
					H64.705c-5.774,0-10.469-4.697-10.469-10.469v-6.281c0-6.927-5.635-12.562-12.562-12.562s-12.562,5.635-12.562,12.562
					c0,3.343,1.342,6.709,3.586,9c0,0.002,0,0.002,0.002,0.002l-2.992,2.932c-2.25-2.296-5.435-3.56-8.972-3.56
					c-6.927,0-12.562,5.635-12.562,12.562c0,6.928,5.635,12.562,12.562,12.562c3.538,0,6.723-1.264,8.972-3.56l0,0l2.992,2.932
					C32.698,87.866,32.698,87.866,32.698,87.868z"/>
			</g>
			<g>
				<path fill="#363F40" d="M41.674,63.369c-4.619,0-8.375-3.756-8.375-8.375s3.756-8.375,8.375-8.375
					c4.617,0,8.375,3.756,8.375,8.375S46.291,63.369,41.674,63.369z M41.674,50.807c-2.311,0-4.188,1.879-4.188,4.188
					s1.877,4.188,4.188,4.188c2.308,0,4.188-1.879,4.188-4.188S43.982,50.807,41.674,50.807z"/>
			</g>
			<g>
				<path fill="#363F40" d="M41.674,105.244c-4.619,0-8.375-3.757-8.375-8.375s3.756-8.375,8.375-8.375
					c4.617,0,8.375,3.757,8.375,8.375S46.291,105.244,41.674,105.244z M41.674,92.682c-2.311,0-4.188,1.879-4.188,4.188
					s1.877,4.188,4.188,4.188c2.308,0,4.188-1.879,4.188-4.188S43.982,92.682,41.674,92.682z"/>
			</g>
			<g>
				<path fill="#363F40" d="M20.736,84.307c-4.619,0-8.375-3.757-8.375-8.375c0-4.619,3.756-8.375,8.375-8.375
					c4.617,0,8.375,3.756,8.375,8.375C29.111,80.55,25.353,84.307,20.736,84.307z M20.736,71.744c-2.311,0-4.188,1.879-4.188,4.188
					s1.877,4.188,4.188,4.188c2.308,0,4.188-1.879,4.188-4.188S23.044,71.744,20.736,71.744z"/>
			</g>
			<g>
				<rect x="39.58" y="73.838" fill="#363F40" width="4.188" height="4.188"/>
			</g>
			<g>
				<rect x="47.955" y="73.838" fill="#363F40" width="4.188" height="4.188"/>
			</g>
			<g>
				<polygon fill="#363F40" points="133.799,101.057 125.424,101.057 125.424,96.869 129.611,96.869 129.611,84.307 117.049,84.307 
					117.049,96.869 121.236,96.869 121.236,101.057 112.861,101.057 112.861,80.119 133.799,80.119 				"/>
			</g>
			<g>
				<rect x="121.236" y="88.494" fill="#363F40" width="4.188" height="8.375"/>
			</g>
		</g>
		<g>
			<rect x="68.893" y="40.338" fill="#363F40" width="4.188" height="4.188"/>
		</g>
		<g>
			<rect x="68.893" y="48.713" fill="#363F40" width="4.188" height="4.188"/>
		</g>
	</g>
</g>
</svg>
