<?xml version="1.0" encoding="utf-8"?>
<!-- Generator: Adobe Illustrator 14.0.0, SVG Export Plug-In . SVG Version: 6.00 Build 43363)  -->
<!DOCTYPE svg PUBLIC "-//W3C//DTD SVG 1.1//EN" "http://www.w3.org/Graphics/SVG/1.1/DTD/svg11.dtd">
<svg version="1.1" id="Capa_1" xmlns="http://www.w3.org/2000/svg" xmlns:xlink="http://www.w3.org/1999/xlink" x="0px" y="0px"
	 width="140px" height="140px" viewBox="0 0 140 140" enable-background="new 0 0 140 140" xml:space="preserve">
<path fill="#089AD7" d="M90.821,45.671c-2.109-7.621-10.565-11.207-17.9-9.992c-0.28,0.046-0.537,0.115-0.782,0.193
	c-1.256-1.193-3.07-1.842-4.718-1.193c-5.499,2.164-11.041,2.524-15.707,6.536c-1.034,0.889-1.528,1.904-1.626,2.914
	c-0.322,1.105-0.272,2.357,0.344,3.646c2.882,6.02,11.434,4.991,16.888,4.741c7.166-0.328,14.395,2.116,21.203-1.197
	C90.516,50.348,91.385,47.705,90.821,45.671z"/>
<path fill="#089AD7" d="M47.098,124.018c-2.109-7.621-10.565-11.207-17.9-9.992c-0.28,0.047-0.537,0.115-0.782,0.193
	c-1.256-1.193-3.07-1.842-4.718-1.193c-5.499,2.164-11.041,2.523-15.707,6.535c-1.034,0.89-1.528,1.904-1.626,2.914
	c-0.322,1.105-0.272,2.357,0.344,3.646c2.882,6.021,11.434,4.991,16.888,4.741c7.166-0.328,14.395,2.116,21.203-1.197
	C46.792,128.695,47.661,126.052,47.098,124.018z"/>
<path fill="#089AD7" d="M133.712,124.018c-2.109-7.621-10.565-11.207-17.9-9.992c-0.28,0.047-0.537,0.115-0.782,0.193
	c-1.256-1.193-3.07-1.842-4.718-1.193c-5.499,2.164-11.041,2.523-15.706,6.535c-1.035,0.89-1.528,1.904-1.627,2.914
	c-0.322,1.105-0.271,2.357,0.345,3.646c2.882,6.021,11.434,4.991,16.888,4.741c7.166-0.328,14.396,2.116,21.203-1.197
	C133.406,128.695,134.275,126.052,133.712,124.018z"/>
<g>
	<g>
		<g>
			<g>
				<path fill="#363F40" d="M70.025,38.44c-7.055,0-12.374-6.65-12.374-15.467c0-6.242,1.406-13.405,12.374-13.405
					c10.968,0,12.373,7.163,12.373,13.405C82.398,31.79,77.079,38.44,70.025,38.44z M70.025,13.693c-6.246,0-8.249,2.255-8.249,9.28
					c0,5.498,2.893,11.342,8.249,11.342c5.357,0,8.248-5.845,8.248-11.342C78.273,15.948,76.271,13.693,70.025,13.693z"/>
			</g>
			<g>
				<path fill="#363F40" d="M86.522,54.938H53.527c-3.353,0-6.187-3.778-6.187-8.249v-5.32l15.475-8.843l2.045,3.58L51.465,43.76
					v2.928c0,2.523,1.45,4.125,2.062,4.125h32.996c0.612,0,2.062-1.601,2.062-4.125V43.76l-13.396-7.655l2.045-3.58l15.476,8.843
					v5.32C92.71,51.159,89.876,54.938,86.522,54.938z"/>
			</g>
		</g>
		<g>
			<g>
				<path fill="#363F40" d="M26.718,116.805c-7.055,0-12.374-6.65-12.374-15.467c0-6.241,1.406-13.404,12.374-13.404
					c10.967,0,12.373,7.163,12.373,13.404C39.091,110.154,33.773,116.805,26.718,116.805z M26.718,92.058
					c-6.246,0-8.25,2.256-8.25,9.28c0,5.498,2.892,11.343,8.25,11.343c5.357,0,8.249-5.845,8.249-11.343
					C34.967,94.313,32.963,92.058,26.718,92.058z"/>
			</g>
			<g>
				<path fill="#363F40" d="M43.216,133.303H10.22c-3.353,0-6.187-3.777-6.187-8.249v-5.32l15.475-8.844l2.046,3.581l-13.396,7.654
					v2.929c0,2.523,1.45,4.125,2.062,4.125h32.996c0.612,0,2.062-1.602,2.062-4.125v-2.929l-13.396-7.654l2.046-3.581l15.475,8.844
					v5.32C49.402,129.525,46.569,133.303,43.216,133.303z"/>
			</g>
		</g>
		<g>
			<g>
				<path fill="#363F40" d="M113.332,116.805c-7.055,0-12.373-6.65-12.373-15.467c0-6.241,1.405-13.404,12.373-13.404
					c10.969,0,12.373,7.163,12.373,13.404C125.705,110.154,120.387,116.805,113.332,116.805z M113.332,92.058
					c-6.244,0-8.249,2.256-8.249,9.28c0,5.498,2.893,11.343,8.249,11.343c5.357,0,8.249-5.845,8.249-11.343
					C121.581,94.313,119.577,92.058,113.332,92.058z"/>
			</g>
			<g>
				<path fill="#363F40" d="M129.829,133.303H96.834c-3.353,0-6.187-3.777-6.187-8.249v-5.32l15.476-8.844l2.045,3.581
					l-13.396,7.654v2.929c0,2.523,1.45,4.125,2.062,4.125h32.995c0.613,0,2.063-1.602,2.063-4.125v-2.929l-13.396-7.654l2.046-3.581
					l15.475,8.844v5.32C136.017,129.525,133.183,133.303,129.829,133.303z"/>
			</g>
		</g>
		<g>
			<rect x="67.962" y="63.187" fill="#363F40" width="4.125" height="20.622"/>
		</g>
		<g>
			
				<rect x="57.651" y="78.853" transform="matrix(0.6249 0.7807 -0.7807 0.6249 94.2712 -12.0871)" fill="#363F40" width="4.127" height="26.41"/>
		</g>
		<g>
			
				<rect x="67.132" y="89.995" transform="matrix(0.7809 0.6247 -0.6247 0.7809 75.1125 -30.013)" fill="#363F40" width="26.41" height="4.127"/>
		</g>
	</g>
</g>
</svg>
