<?xml version="1.0" encoding="utf-8"?>
<!-- Generator: Adobe Illustrator 14.0.0, SVG Export Plug-In . SVG Version: 6.00 Build 43363)  -->
<!DOCTYPE svg PUBLIC "-//W3C//DTD SVG 1.1//EN" "http://www.w3.org/Graphics/SVG/1.1/DTD/svg11.dtd">
<svg version="1.1" id="Capa_1" xmlns="http://www.w3.org/2000/svg" xmlns:xlink="http://www.w3.org/1999/xlink" x="0px" y="0px"
	 width="140px" height="140px" viewBox="0 0 140 140" enable-background="new 0 0 140 140" xml:space="preserve">
<polygon fill="#089AD7" points="92.303,17.75 92.303,25.75 44.178,25.75 44.178,17.75 31.5,17.75 31.5,125.75 105.25,125.75 
	105.25,17.75 "/>
<g>
	<g>
		<path fill="#363F40" d="M118.553,140.229H17.928c-1.209,0-2.188-0.979-2.188-2.188V11.167c0-1.209,0.979-2.187,2.188-2.187h26.25
			v4.375H20.115v122.5h96.25v-122.5H92.303V8.98h26.25c1.209,0,2.188,0.978,2.188,2.187v126.875
			C120.74,139.251,119.762,140.229,118.553,140.229z"/>
	</g>
	<g>
		<path fill="#363F40" d="M92.303,26.48H44.178c-1.209,0-2.188-0.979-2.188-2.188V2.417c0-1.209,0.979-2.188,2.188-2.188h48.125
			c1.209,0,2.188,0.979,2.188,2.188v21.875C94.49,25.501,93.512,26.48,92.303,26.48z M46.365,22.105h43.75v-17.5h-43.75V22.105z"/>
	</g>
	<g>
		<path fill="#363F40" d="M105.428,127.104H31.053c-1.209,0-2.188-0.979-2.188-2.188v-105c0-1.209,0.979-2.188,2.188-2.188h6.562
			v4.375H33.24V122.73h70V22.105h-4.375v-4.375h6.562c1.209,0,2.188,0.979,2.188,2.188v105
			C107.615,126.126,106.637,127.104,105.428,127.104z"/>
	</g>
	<g>
		<rect x="44.178" y="92.104" fill="#FFFFFF" width="48.125" height="4.376"/>
	</g>
	<g>
		<rect x="44.178" y="100.854" fill="#FFFFFF" width="48.125" height="4.375"/>
	</g>
	<g>
		<rect x="44.178" y="73.771" fill="#FFFFFF" width="48.125" height="4.375"/>
	</g>
	<g>
		<rect x="44.178" y="82.521" fill="#FFFFFF" width="48.125" height="4.375"/>
	</g>
	<g>
		<rect x="44.178" y="55.438" fill="#FFFFFF" width="48.125" height="4.375"/>
	</g>
	<g>
		<rect x="44.178" y="64.188" fill="#FFFFFF" width="48.125" height="4.375"/>
	</g>
	<g>
		<rect x="44.178" y="37.105" fill="#FFFFFF" width="48.125" height="4.375"/>
	</g>
	<g>
		<rect x="44.178" y="45.855" fill="#FFFFFF" width="48.125" height="4.375"/>
	</g>
	<g>
		<rect x="44.178" y="109.605" fill="#FFFFFF" width="26.25" height="4.374"/>
	</g>
	<g>
		<path fill="#363F40" d="M83.553,17.729H52.928c-1.209,0-2.188-0.978-2.188-2.187V8.98h4.375v4.375h26.25V8.98h4.375v6.562
			C85.74,16.751,84.762,17.729,83.553,17.729z"/>
	</g>
</g>
</svg>
