<?xml version="1.0" encoding="utf-8"?>
<!-- Generator: Adobe Illustrator 14.0.0, SVG Export Plug-In . SVG Version: 6.00 Build 43363)  -->
<!DOCTYPE svg PUBLIC "-//W3C//DTD SVG 1.1//EN" "http://www.w3.org/Graphics/SVG/1.1/DTD/svg11.dtd">
<svg version="1.1" id="Capa_1" xmlns="http://www.w3.org/2000/svg" xmlns:xlink="http://www.w3.org/1999/xlink" x="0px" y="0px"
	 width="140px" height="140px" viewBox="0 0 140 140" enable-background="new 0 0 140 140" xml:space="preserve">
<g>
	<path fill="#363F40" d="M69.236,138.261c-37.695,0-68.364-30.669-68.364-68.364S31.541,1.532,69.236,1.532
		s68.364,30.669,68.364,68.364S106.932,138.261,69.236,138.261z M69.236,5.805c-35.34,0-64.091,28.751-64.091,64.091
		s28.751,64.092,64.091,64.092s64.092-28.752,64.092-64.092S104.576,5.805,69.236,5.805z"/>
</g>
<circle fill="#089AD7" cx="69.074" cy="70.049" r="51.134"/>
<g>
	<path fill="#F5F5F5" d="M57.154,77.515v24.392H43.676V38.34h18.522c8.638,0,15.028,1.573,19.174,4.717
		c4.146,3.146,6.218,7.921,6.218,14.326c0,3.739-1.029,7.065-3.087,9.979c-2.059,2.913-4.972,5.196-8.739,6.848
		c9.565,14.29,15.797,23.522,18.696,27.696H79.503L64.329,77.515H57.154z M57.154,66.558h4.348c4.261,0,7.406-0.71,9.435-2.13
		c2.028-1.42,3.044-3.652,3.044-6.696c0-3.015-1.037-5.159-3.109-6.435c-2.072-1.275-5.283-1.913-9.63-1.913h-4.087V66.558z"/>
</g>
</svg>
