<?xml version="1.0" encoding="utf-8"?>
<!-- Generator: Adobe Illustrator 14.0.0, SVG Export Plug-In . SVG Version: 6.00 Build 43363)  -->
<!DOCTYPE svg PUBLIC "-//W3C//DTD SVG 1.1//EN" "http://www.w3.org/Graphics/SVG/1.1/DTD/svg11.dtd">
<svg version="1.1" id="Capa_1" xmlns="http://www.w3.org/2000/svg" xmlns:xlink="http://www.w3.org/1999/xlink" x="0px" y="0px"
	 width="140px" height="140px" viewBox="0 0 140 140" enable-background="new 0 0 140 140" xml:space="preserve">
<polygon fill="#089AD7" points="2,29.25 2,114.75 71.5,114.75 52.25,92 71.5,91.25 53,68.25 71.5,68.75 52.5,45.25 71.5,44.75 
	57.25,29.25 "/>
<g>
	<path fill="#363F40" d="M73.323,69.437c0.296-0.633,0.192-1.379-0.258-1.911L55.845,47.174h15.853c0.711,0,1.351-0.418,1.638-1.067
		c0.291-0.647,0.164-1.406-0.312-1.931L57.862,27.499v-0.042h-0.038h-4.845H3.585H1.792H0v3.344v84.484
		c0,0.992,0.803,1.793,1.792,1.793h69.905c0.696,0,1.332-0.406,1.626-1.039c0.296-0.638,0.192-1.38-0.258-1.911L55.845,93.777
		h15.853c0.696,0,1.332-0.405,1.626-1.039c0.296-0.637,0.192-1.379-0.258-1.911L55.845,70.476h15.853
		C72.394,70.476,73.029,70.07,73.323,69.437z M51.98,66.892c-0.698,0-1.332,0.402-1.626,1.036c-0.294,0.633-0.191,1.379,0.258,1.911
		l17.219,20.353H51.98c-0.698,0-1.332,0.403-1.626,1.037c-0.294,0.634-0.191,1.379,0.258,1.911l17.219,20.354H3.585V30.802H56.02
		l11.624,12.788H51.98c-0.698,0-1.332,0.404-1.626,1.038c-0.294,0.635-0.191,1.379,0.258,1.912l17.219,20.353H51.98z"/>
</g>
<g>
	<path fill="#363F40" d="M66.176,75.098c-0.294,0.638-0.192,1.383,0.259,1.912l17.221,20.353H67.804
		c-0.711,0-1.354,0.417-1.64,1.068c-0.29,0.647-0.165,1.403,0.313,1.93l15.159,16.678v0.041h0.037h4.846h49.396h1.792h1.793v-3.345
		V29.25c0-0.991-0.803-1.792-1.793-1.792H67.804c-0.699,0-1.334,0.404-1.628,1.038c-0.294,0.637-0.192,1.381,0.259,1.911
		l17.221,20.352H67.804c-0.699,0-1.334,0.405-1.628,1.038c-0.294,0.637-0.192,1.381,0.259,1.912l17.221,20.353H67.804
		C67.105,74.062,66.47,74.464,66.176,75.098z M87.521,77.646c0.696,0,1.33-0.406,1.624-1.04c0.294-0.633,0.192-1.38-0.257-1.912
		l-17.219-20.35h15.852c0.696,0,1.33-0.404,1.624-1.039c0.294-0.633,0.192-1.379-0.257-1.911L71.669,31.042h64.246v82.692H83.48
		l-11.627-12.787h15.667c0.696,0,1.33-0.405,1.624-1.039c0.294-0.635,0.192-1.38-0.257-1.912l-17.219-20.35H87.521z"/>
</g>
</svg>
